Coordinates
version=1
nRows=11
nColumns=63
inDegrees=yes

Units are S.I. units (second, meters, Newtons, ...)
If the header above contains a line with 'inDegrees', this indicates whether rotational values are in degrees (yes) or radians (no).

endheader
time	pelvis_tilt	pelvis_list	pelvis_rotation	pelvis_tx	pelvis_ty	pelvis_tz	hip_flexion_r	hip_adduction_r	hip_rotation_r	knee_angle_r	knee_angle_r_beta	ankle_angle_r	subtalar_angle_r	mtp_angle_r	hip_flexion_l	hip_adduction_l	hip_rotation_l	knee_angle_l	knee_angle_l_beta	ankle_angle_l	subtalar_angle_l	mtp_angle_l	L5_S1_Flex_Ext	L5_S1_Lat_Bending	L5_S1_axial_rotation	L4_L5_Flex_Ext	L4_L5_Lat_Bending	L4_L5_axial_rotation	L3_L4_Flex_Ext	L3_L4_Lat_Bending	L3_L4_axial_rotation	L2_L3_Flex_Ext	L2_L3_Lat_Bending	L2_L3_axial_rotation	L1_L2_Flex_Ext	L1_L2_Lat_Bending	L1_L2_axial_rotation	L1_T12_Flex_Ext	L1_T12_Lat_Bending	L1_T12_axial_rotation	Abs_r3	Abs_r2	Abs_r1	Abs_t1	Abs_t2	neck_flexion	neck_bending	neck_rotation	arm_flex_r	arm_add_r	arm_rot_r	elbow_flex_r	pro_sup_r	wrist_flex_r	wrist_dev_r	arm_flex_l	arm_add_l	arm_rot_l	elbow_flex_l	pro_sup_l	wrist_flex_l	wrist_dev_l
      0.00000000	      1.40537323	     -3.99249293	     89.96811107	      0.19170356	      0.99920345	      0.43699815	     -6.93330492	      2.99161225	      0.31738616	      1.84765649	      0.03224769	     30.22293202	     -3.54412073	      0.00000000	     -6.43261617	     -4.29790212	    -16.43678190	      6.12045398	      0.10682207	     28.53933237	      3.44989871	      0.00000000	      0.03962652	      0.16305911	     -0.04943686	      0.07359040	      0.21686862	     -0.05252666	      0.06510240	      0.39646193	     -0.05252666	      0.04528914	      0.39646193	     -0.04325725	      0.03679718	      0.33251015	     -0.04016745	      0.02264259	      0.25257857	     -0.03707764	      0.28304824	      1.84455732	     -0.27495297	      0.00000000	      0.00000000	     12.60411594	     16.30466167	     -9.32645855	     27.44983982	    -22.16956666	     73.47885057	     74.90899161	     89.38653085	    -33.43972836	    -22.60276584	     32.86736826	    -24.86889658	     78.75928258	     73.62283522	     88.80770017	     -0.73074755	    -24.15648164
      0.01818182	      1.22058631	     -4.18241260	     89.48889665	      0.19119497	      0.99938488	      0.43667443	     -6.78580710	      2.67647616	      0.28155319	      2.19318325	      0.03827827	     29.24553492	     -4.92759095	      0.00000000	     -6.37959054	     -3.85974723	    -15.00555434	      5.62647343	      0.09820049	     29.39435937	      2.59184458	      0.00000000	      0.07517119	      0.16217439	      0.03871081	      0.13960042	      0.21569194	      0.04113023	      0.12349875	      0.39431082	      0.04113023	      0.08591316	      0.39431082	      0.03387196	      0.06980397	      0.33070603	      0.03145253	      0.04295282	      0.25120814	      0.02903311	      0.53694031	      1.83454919	      0.21529790	      0.00000000	      0.00000000	     12.54086223	     16.39753811	     -8.74916431	     25.26392968	    -21.93765036	     69.92326578	     75.08655366	     89.33141812	    -30.56392867	    -19.34911700	     30.54406065	    -23.90598572	     75.04429038	     71.87875329	     87.26728985	      5.18354514	    -24.04995836
      0.03636364	      1.14414247	     -4.09951358	     89.33767538	      0.19062995	      0.99992419	      0.43659928	     -6.90630209	      2.53644374	     -0.07454496	      2.31997947	      0.04049128	     28.73692453	     -5.43668865	      0.00000000	     -6.52892621	     -3.64062156	    -14.00650820	      5.35864867	      0.09352606	     29.68440626	      1.72901463	      0.00000000	      0.06290123	      0.16884867	      0.08602899	      0.11681387	      0.22456874	      0.09140580	      0.10334043	      0.41053867	      0.09140580	      0.07188982	      0.41053867	      0.07527537	      0.05841008	      0.34431622	      0.06989856	      0.03594176	      0.26154660	      0.06452174	      0.44929719	      1.91004998	      0.47846745	      0.00000000	      0.00000000	     12.43504504	     16.14739178	     -8.45078592	     24.07655428	    -21.85364620	     67.91766523	     75.17866254	     89.33281467	    -28.94376427	    -16.58772769	     29.05769321	    -22.95602317	     72.96107756	     70.32412007	     83.42676978	      8.89984044	    -23.87175025
      0.05454545	      1.18502646	     -3.95398615	     89.17268723	      0.19030878	      1.00058191	      0.43699673	     -6.96024423	      2.49228012	     -1.10096795	      2.46601022	      0.04304000	     28.99800690	     -4.12671395	      0.00000000	     -6.67588427	     -3.58037716	    -13.33480154	      5.33696724	      0.09314765	     29.56415253	      0.46218935	      0.00000000	      0.03988369	      0.18316026	      0.18256533	      0.07406800	      0.24360314	      0.19397566	      0.06552492	      0.44533585	      0.19397566	      0.04558307	      0.44533585	      0.15974466	      0.03703600	      0.37350040	      0.14833433	      0.02278954	      0.28371524	      0.13692400	      0.28488522	      2.07194545	      1.01537360	      0.00000000	      0.00000000	     12.18901561	     15.91480231	     -8.61866108	     23.42317684	    -22.07160331	     66.60760047	     75.18897640	     89.38151877	    -26.84731679	    -14.73768231	     28.72983001	    -21.92141918	     73.13698579	     68.74853377	     76.45689411	     11.44774231	    -23.66679163
      0.07272727	      1.23490169	     -3.86693729	     89.11146378	      0.19004797	      1.00112665	      0.43729221	     -6.97379237	      2.48387125	     -2.13274575	      2.46143230	      0.04296010	     29.49537052	     -2.41793369	      0.00000000	     -6.76983199	     -3.57441931	    -13.16070889	      5.37356138	      0.09378634	     29.15023239	     -0.46153278	      0.00000000	      0.03112173	      0.19471242	      0.29009162	      0.05779617	      0.25896752	      0.30822234	      0.05112990	      0.47342378	      0.30822234	      0.03556903	      0.47342378	      0.25383016	      0.02889964	      0.39705757	      0.23569944	      0.01778296	      0.30160954	      0.21756871	      0.22229944	      2.20262586	      1.61340254	      0.00000000	      0.00000000	     11.88566786	     15.51477361	     -9.05016983	     22.97614600	    -22.32618403	     66.09756460	     74.83115491	     89.41570478	    -26.83467633	    -14.90558914	     28.98368279	    -21.00178911	     74.42910012	     67.59993627	     70.16990178	     12.11057939	    -23.38376850
      0.09090909	      1.27167740	     -3.82371222	     89.09030086	      0.19013616	      1.00156434	      0.43756055	     -6.99469590	      2.52233578	     -2.21829368	      2.25926606	      0.03943163	     29.80933342	     -1.71093497	      0.00000000	     -6.77492570	     -3.62939879	    -13.65967457	      5.56074605	      0.09705333	     28.67177194	     -0.75768431	      0.00000000	      0.02935189	      0.19836350	      0.38083011	      0.05450939	      0.26382345	      0.40463199	      0.04822221	      0.48230101	      0.40463199	      0.03354627	      0.48230101	      0.33322635	      0.02725616	      0.40450284	      0.30942447	      0.01677167	      0.30726506	      0.28562258	      0.20965759	      2.24392756	      2.11806284	      0.00000000	      0.00000000	     11.77535565	     15.34724952	     -9.59878988	     22.86116593	    -22.47059967	     66.36750484	     74.14466237	     89.41657612	    -28.19417066	    -16.40211250	     29.44457832	    -20.36371015	     76.33178458	     66.99951414	     63.44359935	     11.55221240	    -23.02321392
      0.10909091	      1.30791410	     -3.77990240	     89.16262033	      0.19015202	      1.00199086	      0.43780420	     -7.02176051	      2.57162393	     -2.48347344	      2.08606518	      0.03640871	     30.08368320	     -0.85111346	      0.00000000	     -6.75920712	     -3.72925486	    -14.49356192	      5.77219905	      0.10074388	     28.33507803	     -0.29952996	      0.00000000	      0.03024358	      0.20108794	      0.45004646	      0.05616535	      0.26744696	      0.47817436	      0.04968718	      0.48892522	      0.47817436	      0.03456539	      0.48892522	      0.39379065	      0.02808419	      0.41005853	      0.36566275	      0.01728118	      0.31148522	      0.33753484	      0.21602686	      2.27474701	      2.50302338	      0.00000000	      0.00000000	     11.72255866	     15.05140794	    -10.30291822	     22.70050789	    -22.71438380	     66.37201790	     73.89810055	     89.42083756	    -28.39176771	    -16.39242890	     30.04604915	    -19.77117065	     78.34520872	     66.53380387	     57.52042441	     11.19450100	    -22.43965503
      0.12727273	      1.38186363	     -3.76457352	     89.24233620	      0.19008694	      1.00228499	      0.43809740	     -6.96180404	      2.64118677	     -3.51461999	      2.13502951	      0.03726329	     30.40870336	      0.83233697	      0.00000000	     -6.69832819	     -3.85420001	    -14.99215439	      5.98180577	      0.10440221	     28.00354120	     -0.14709095	      0.00000000	      0.03044857	      0.21073076	      0.43158517	      0.05654603	      0.28027191	      0.45855924	      0.05002395	      0.51237077	      0.45855924	      0.03479967	      0.51237077	      0.37763702	      0.02827454	      0.42972217	      0.35066295	      0.01739831	      0.32642195	      0.32368887	      0.21749106	      2.38382850	      2.40034722	      0.00000000	      0.00000000	     11.96162539	     15.16884276	    -10.36717380	     22.84600802	    -22.89379062	     66.47441282	     74.22456062	     89.41249097	    -27.01239236	    -14.01935448	     29.93856052	    -19.46140365	     78.56289415	     66.25277091	     55.95811684	     11.01736654	    -21.25541205
      0.14545455	      1.32306893	     -3.81343829	     88.90733797	      0.19062757	      1.00232871	      0.43810260	     -6.86401595	      2.51779294	     -4.29806246	      2.23102020	      0.03893865	     30.62108341	      2.53106688	      0.00000000	     -6.71111200	     -3.76478887	    -15.68242358	      6.01638168	      0.10500567	     27.59566218	     -0.06888047	      0.00000000	      0.04661392	      0.19909098	      0.60578345	      0.08656671	      0.26479101	      0.64364491	      0.07658201	      0.48406981	      0.64364491	      0.05327505	      0.48406981	      0.53006051	      0.04328569	      0.40598633	      0.49219905	      0.02663519	      0.30839193	      0.45433758	      0.33295857	      2.25215700	      3.36918579	      0.00000000	      0.00000000	     12.45462655	     14.78638393	    -11.86962048	     21.10121332	    -23.39584449	     62.99600914	     76.24568735	     89.41065159	    -21.11038618	     -6.80153780	     31.34413791	    -18.85585929	     82.24445432	     66.10914898	     47.24799225	     10.92582499	    -20.29007076
      0.16363636	      1.31231960	     -3.86456869	     88.73840869	      0.19093226	      1.00229544	      0.43818473	     -6.76011220	      2.46623231	     -5.13554100	      2.40312321	      0.04194241	     30.74064577	      3.80408157	      0.00000000	     -6.66838175	     -3.75194130	    -16.19762800	      6.05658731	      0.10570739	     27.21574132	      0.10631036	      0.00000000	      0.05910243	      0.19842278	      0.67078587	      0.10975913	      0.26390230	      0.71270999	      0.09709939	      0.48244514	      0.71270999	      0.06754817	      0.48244514	      0.58693764	      0.05488252	      0.40462373	      0.54501352	      0.03377113	      0.30735688	      0.50308941	      0.42216278	      2.24459816	      3.73070980	      0.00000000	      0.00000000	     13.05667356	     14.67837316	    -12.48244279	     19.29130517	    -23.25090673	     58.79750003	     78.11790020	     89.37010759	    -13.83977705	      1.78101725	     31.90853941	    -18.59683524	     84.02976816	     66.30692180	     41.61670326	     10.53472587	    -19.07232238
      0.18181818	      1.22787296	     -3.89525512	     88.57336024	      0.19126463	      1.00235615	      0.43826474	     -6.68723500	      2.34729318	     -5.57747564	      2.56137247	      0.04470438	     30.79795646	      4.43479056	      0.00000000	     -6.63891433	     -3.65841894	    -16.54782238	      6.06926398	      0.10592864	     26.79857468	      0.17477326	      0.00000000	      0.07217942	      0.19317929	      0.70589812	      0.13404440	      0.25692845	      0.75001675	      0.11858357	      0.46969612	      0.75001675	      0.08249386	      0.46969612	      0.61766086	      0.06702581	      0.39393121	      0.57354222	      0.04124332	      0.29923472	      0.52942359	      0.51557039	      2.18528276	      3.92599357	      0.00000000	      0.00000000	     13.50666864	     14.61502394	    -12.55651995	     17.57111717	    -22.58009947	     55.05133280	     79.09446843	     89.28642765	     -9.03731814	      7.55096368	     32.05493641	    -18.53512302	     84.85804353	     66.50890445	     38.23112663	     10.12116841	    -18.44671286
